<?xml version="1.0" encoding="utf-8"?>
<!-- Generator: Adobe Illustrator 27.2.0, SVG Export Plug-In . SVG Version: 6.00 Build 0)  -->
<svg version="1.1" id="Layer_1" xmlns="http://www.w3.org/2000/svg" xmlns:xlink="http://www.w3.org/1999/xlink" x="0px" y="0px"
	 viewBox="0 0 789 115" style="enable-background:new 0 0 789 115;" xml:space="preserve">
<style type="text/css">
	.st0{fill:#FFFFFF;}
	.st1{font-family:'Inter-Regular';}
	.st2{font-size:64px;}
</style>
<text transform="matrix(1 0 0 1 105.0943 91.0099)" class="st0 st1 st2">Mass General Brigham</text>
<polygon class="st0" points="9.9,44.4 9.9,61 9.9,76 19.7,76 19.7,44.4 "/>
<polygon class="st0" points="30.9,44.4 30.9,61 30.9,76 40.7,76 40.7,44.4 "/>
<polygon class="st0" points="51.9,44.4 51.9,61 51.9,76 61.7,76 61.7,44.4 "/>
<polygon class="st0" points="9.9,29.6 9.9,38.5 46.3,38.5 82.7,38.5 82.7,29.6 "/>
<polygon class="st0" points="46.3,5.2 9.9,17.3 9.9,26.5 46.3,14.4 82.7,26.5 82.7,17.3 "/>
<path class="st0" d="M82.7,75.3c-0.2,0.5-3.7,6.6-27,6.6H36.9C13,82.1,10.4,85.2,9.9,85.5v9.1c0.4-0.3,3.1-3.4,27-3.6h18.9
	c23.2,0,26.8-6.1,27-6.6L82.7,75.3z"/>
<path class="st0" d="M82.7,90.4c-0.2,0.5-3.7,6.6-27,6.6H36.9c-23.8,0.2-26.5,3.3-27,3.6v9.1c0.4-0.3,3.1-3.4,27-3.6h18.9
	c23.2,0,26.8-6.1,27-6.6L82.7,90.4z"/>
<path class="st0" d="M72.9,44.4v30c8-1.8,9.7-4.7,9.8-5v-25H72.9z"/>
</svg>
